<?xml version="1.0" standalone="no"?>
<!DOCTYPE svg PUBLIC "-//W3C//DTD SVG 20010904//EN"
 "http://www.w3.org/TR/2001/REC-SVG-20010904/DTD/svg10.dtd">
<svg version="1.0" xmlns="http://www.w3.org/2000/svg"
 width="259.000000pt" height="194.000000pt" viewBox="0 0 259.000000 194.000000"
 preserveAspectRatio="xMidYMid meet">

<g transform="translate(0.000000,194.000000) scale(0.100000,-0.100000)"
fill="#000000" stroke="none">
<path d="M0 970 l0 -970 1295 0 1295 0 0 970 0 970 -1295 0 -1295 0 0 -970z
m1469 629 c-18 -39 -35 -67 -37 -61 -6 18 27 114 45 134 30 33 26 1 -8 -73z
m169 -68 c44 -182 52 -411 18 -508 -11 -33 -21 -28 -41 20 -10 23 -25 58 -33
77 -35 80 -44 417 -14 493 10 24 14 26 31 16 12 -8 25 -40 39 -98z m-608 -318
c0 -5 -15 -16 -33 -26 l-32 -19 24 26 c24 26 41 33 41 19z m-362 -267 c-17
-12 -16 -14 5 -24 14 -7 16 -11 7 -11 -13 -1 -15 -20 -12 -118 4 -132 -2 -181
-23 -189 -17 -7 -319 206 -308 217 10 10 324 138 338 138 6 0 2 -6 -7 -13z
m615 -609 c5 3 16 -2 26 -11 9 -8 28 -17 42 -19 13 -2 29 -13 35 -25 9 -19 11
-19 21 -4 10 14 12 14 12 2 1 -22 -130 -145 -185 -173 -96 -48 -98 -47 -135
41 -18 42 -40 97 -50 122 l-17 46 24 2 c14 1 34 7 46 13 12 6 38 8 60 5 22 -4
37 -3 34 2 -3 5 13 6 37 2 23 -5 46 -6 50 -3z"/>
</g>
</svg>
